<?xml version="1.0" encoding="UTF-8"?>
<svg id="katman_1" xmlns="http://www.w3.org/2000/svg" version="1.1" viewBox="0 0 150 49.4">
  <!-- Generator: Adobe Illustrator 29.5.1, SVG Export Plug-In . SVG Version: 2.1.0 Build 141)  -->
  <defs>
    <style>
      .st0 {
        fill: #fff;
      }

      .st1 {
        display: none;
      }
    </style>
  </defs>
  <g class="st1">
    <g>
      <path d="M50.2,24.7c0,13.7-11.2,24.7-25,24.7S.3,38.2.4,24.5C.5,11,11.7,0,25.5,0s24.8,11.2,24.7,24.7ZM49.8,24.8C49.8,11.4,38.9.5,25.4.5,11.9.4.9,11.3.8,24.6c0,13.4,11,24.4,24.5,24.4s24.4-10.8,24.5-24.2Z"/>
      <path d="M59.8,29.2v-9.3c1.9,0,3.7-.2,5.5.1.9.2,1.6.7,1.8,1.7.3,1,0,1.7-1,2.6.2.1.4.3.6.4,1.4,1,1.4,3.1-.2,4-.5.3-1.2.5-1.7.5-1.6,0-3.2,0-5,0ZM61.8,27.4h2.8c.7,0,1-.4,1-.9s-.3-.9-1-1c-.9-.1-1.9,0-2.9,0,.1.6.1,1.1.1,1.9ZM61.8,23.6h2.5c.5,0,.8-.4.8-.9s-.4-.9-.8-.9c-.8-.1-1.6,0-2.5,0,0,.6,0,1.2,0,1.8Z"/>
      <path d="M143.3,26.3v2.9h-2v-9.2c.2,0,.5-.1.7-.1h3.5c.4,0,.7,0,1.1.1,1.3.2,2.2,1,2.4,2.2.3,1.4-.1,2.6-1.2,3.4-.2.1-.4.2-.6.4.7,1.1,1.4,2.1,2.2,3.2h-2.4c-.6-.9-1.3-1.9-2-2.9-.6,0-1.1,0-1.7,0ZM143.4,21.7v2.7h2.2c.9-.1,1.4-.6,1.4-1.3s-.5-1.3-1.3-1.3c-.8-.1-1.5-.1-2.3-.1Z"/>
      <path d="M132.4,19.9h2v9.2h-2v-3.6h-3.8v3.6h-2v-9.2h2v3.5h3.9c-.1-1.1-.1-2.3-.1-3.5Z"/>
      <path d="M117.6,29.2v-9.2h7v1.7h-4.9v1.9h4.3v1.8h-4.3v1.9h4.9v1.9c-2.3,0-4.6,0-7,0Z"/>
      <path d="M107.6,20c-1.3,1.4-2.5,2.6-3.8,3.9.7.9,1.3,1.8,1.9,2.6.6.9,1.3,1.7,2,2.7h-2.5c-.9-1.2-1.9-2.6-2.9-3.9-.4.4-.8.7-1.1,1v2.9h-2v-9.2h2v3.7c.1,0,.1.1.2.1,1.2-1.3,2.4-2.5,3.6-3.8.9,0,1.7,0,2.6,0Z"/>
      <path d="M113,29.3c-.3.7-.6,1.4-.9,2.2-.6-.2-1.1-.4-1.7-.7.3-.5.6-.9.9-1.4-1.1-.4-2.2-.6-3-1.6.4-.5.8-.9,1.1-1.3.7.3,1.4.7,2.1.9.5.1,1.1.1,1.6,0,.2-.1.5-.4.5-.7,0-.2-.2-.6-.4-.7-.4-.2-.9-.4-1.4-.5-.5-.2-.9-.3-1.4-.4-1.3-.5-1.8-1.2-1.8-2.6,0-1.2.7-2.1,1.9-2.5,1.7-.5,3.3-.2,4.8.9-.4.5-.7,1-1,1.5-.6-.3-1.2-.5-1.8-.7-.2-.1-.5-.1-.8-.1-.5,0-1,.1-1.1.7s.3.9.8,1c.7.2,1.4.4,2,.6,1.6.5,2.1,1.3,2.1,2.7-.1,1.3-.8,2.2-2.3,2.6.1.1,0,.1-.2.1Z"/>
      <path d="M69.4,19.9h2v5.5c.1,1.3.8,2,2,2s1.9-.7,1.9-2c.1-1.6,0-3.2,0-4.7,0-.3,0-.5.1-.8h1.9c0,.2.1.4.1.6v4.7c0,1.5-.4,2.9-1.9,3.5-1.6.7-3.2.7-4.7-.2-.9-.6-1.4-1.5-1.5-2.5,0-1.9.1-3.9.1-6.1Z"/>
      <path d="M95.2,19.9h1.9q.1.1.1.2c0,2,.1,4-.1,6s-1.4,3.1-3.4,3.2c-.7.1-1.4,0-2-.1-1.4-.3-2.4-1.3-2.5-2.6-.2-2.2-.2-4.4-.2-6.7h2.1v5.4c.1,1.6,1.2,2.5,2.7,2,.9-.2,1.3-.9,1.4-2v-5.4Z"/>
      <path d="M65.7,39.4c.3.1.5.2.7.4,1.5.9,1.6,2.8.1,3.8-.5.3-1.2.5-1.8.6-.4.1-.8,0-1.3,0h-3.5v-9.3h3.9c.5,0,1,.1,1.5.3,1.8.6,2.1,2.6.7,3.9.1.1-.1.2-.3.3ZM61.1,43.2h3.9c.2,0,.4-.1.6-.2.6-.3.9-.7.9-1.4s-.3-1.1-.9-1.3c-1.5-.5-3-.3-4.4-.2-.1,1.1-.1,2.1-.1,3.1ZM61.1,39.1c1.2-.1,2.4,0,3.6-.2.8-.1,1.3-.8,1.3-1.6,0-.7-.5-1.3-1.3-1.4-1.2-.1-2.4,0-3.6,0v3.2Z"/>
      <path d="M78.7,19.9h2.4c.7,1.1,1.4,2.3,2.2,3.6.8-1.3,1.5-2.4,2.3-3.6h2.3c-.6.9-1,1.7-1.6,2.4-1.5,1.9-2.4,3.9-2,6.4v.4h-2v-2.7c0-.7-.1-1.2-.5-1.8-.9-1.3-1.6-2.5-2.5-3.8-.2-.2-.4-.5-.6-.9Z"/>
      <path d="M96,34.8c1.5.1,3,0,4.5.3,2.4.4,3.9,2.4,3.7,4.7-.1,2.4-1.9,4.2-4.4,4.4-1.3.1-2.5,0-3.9,0,.1-3.1.1-6.1.1-9.4ZM97.1,43.2c1,0,1.9.1,2.7,0,1.8-.1,3.2-1.6,3.3-3.3.1-1.9-1-3.5-2.8-3.8-1-.2-2.1-.1-3.2-.2v7.3Z"/>
      <path d="M104.1,10.4c.9,1.2,1.8,2.4,2.8,3.7h-1.3c-.8-1.1-1.7-2.3-2.6-3.5h-2.7v3.5h-1V4.9c1.6,0,3.2-.1,4.8,0,1.6.1,2.5,1.2,2.6,2.5.1,1.2-.5,2.1-1.6,2.6-.3.2-.6.3-1,.4ZM100.3,9.5h3.3c.2,0,.5-.1.7-.2.8-.3,1.2-1,1.2-1.8s-.5-1.3-1.3-1.6c-1.3-.3-2.6-.1-3.9-.2,0,1.4,0,2.6,0,3.8Z"/>
      <path d="M121.1,43.2h5.6c0,.3.1.6.1.9h-6.8v-9.2h6.7v.9h-5.6v3.2h5v1h-5c0,1.1,0,2.2,0,3.2Z"/>
      <path d="M70.8,43.2h5.6c0,.3.1.6.1.9h-6.8v-9.2h6.7c0,.3,0,.5.1.9h-5.7v3.2h5v1h-5c0,1.1,0,2.1,0,3.2Z"/>
      <path d="M93.8,43.2v1h-6.7v-9.2h6.7c0,.2.1.5.1.9h-5.7v3.2h5v1h-5.1v3.2c1.9-.1,3.7-.1,5.7-.1Z"/>
      <path d="M125.4,14.1h-1.1c-.4-.8-.7-1.6-1.1-2.4h-5.1c-.4.8-.7,1.6-1.1,2.4h-1.1c1.4-3.1,2.8-6.2,4.2-9.3h1.1c1.4,3.1,2.8,6.1,4.2,9.3ZM122.8,10.7c-.7-1.6-1.4-3-2.1-4.6-.7,1.7-1.4,3.1-2.1,4.6h4.2Z"/>
      <path d="M92,4.8h1c1.4,3,2.8,6.1,4.2,9.3-.4,0-.7,0-1.1.1-.4-.8-.7-1.6-1.1-2.4h-5.1c-.4.8-.7,1.5-1.1,2.4h-1.1c1.5-3.2,2.9-6.2,4.3-9.4ZM92.5,6c-.7,1.6-1.4,3.1-2.1,4.6h4.2c-.7-1.5-1.3-2.9-2.1-4.6Z"/>
      <path d="M77.1,14.1c-.4,0-.7,0-1.1.1-.4-.8-.8-1.6-1.1-2.4h-5.1c-.4.8-.8,1.6-1.1,2.4h-1.1c1.4-3.1,2.8-6.2,4.2-9.3h1.1c1.4,3,2.8,6.1,4.2,9.2ZM70.2,10.7h4.2c-.7-1.5-1.4-3-2.1-4.6-.7,1.5-1.3,3-2.1,4.6Z"/>
      <path d="M85.6,14.1c-1.1-1.4-2.3-2.9-3.5-4.4-.7.7-1.3,1.4-2,2.2v2.2h-1V4.9c.3,0,.6,0,1-.1v5.3c.1,0,.1.1.2.1,1.7-1.8,3.5-3.6,5.2-5.4h1.4c-1.4,1.4-2.6,2.7-4,4.1,1.4,1.7,2.7,3.4,4.1,5.1-.6.1-1,.1-1.4.1Z"/>
      <path d="M135.1,36c-.2.2-.4.4-.5.6-.8-.3-1.5-.7-2.3-.8-.6-.1-1.2,0-1.8.3-1,.5-1,1.8,0,2.3.5.3,1.1.4,1.7.6.6.2,1.1.3,1.7.5,1,.4,1.5,1.1,1.5,2.2s-.6,1.9-1.6,2.3c-1.6.7-3.7.2-5.3-1.2.2-.2.4-.5.6-.8,1,.8,2,1.4,3.2,1.3.4,0,.9-.1,1.3-.3.5-.2.8-.7.8-1.3s-.3-1-.8-1.2c-.6-.2-1.2-.4-1.7-.6-.5-.2-1.1-.3-1.6-.5-.9-.4-1.4-1.1-1.5-2.1,0-1,.5-1.8,1.4-2.3,1.4-.6,3.9-.2,4.9,1Z"/>
      <path d="M65.6,6.5c-.9-.3-1.6-.7-2.3-.8-.5-.1-1.2.1-1.7.2-.5.2-.8.6-.8,1.2s.3,1,.8,1.2,1,.4,1.5.5c.6.2,1.3.3,1.9.6.9.4,1.5,1.1,1.5,2.1,0,1.1-.5,1.9-1.5,2.3-1.4.6-2.8.5-4.1-.1-.5-.2-.9-.6-1.5-.9.2-.3.4-.5.6-.7.9.4,1.6.8,2.5,1,.6.1,1.3,0,2-.1.6-.1.9-.6,1-1.3,0-.7-.3-1.1-.9-1.3s-1.2-.4-1.8-.5c-.5-.1-.9-.3-1.4-.4-1-.4-1.5-1.1-1.5-2.1,0-1.1.5-1.9,1.5-2.3,1.4-.6,2.8-.4,4.1.3.2.1.4.3.7.5-.3.2-.4.4-.6.6Z"/>
      <path d="M138.8,19.9v9.2h-1.9v-9.2c.6,0,1.2,0,1.9,0Z"/>
      <path d="M115.2,4.9h1.2c-.2.3-.4.6-.5.9-.9,1.4-1.9,2.7-2.8,4-.3.4-.5.9-.5,1.4v2.9c-.4,0-.7.1-1.1.1v-2.8c0-.6-.1-1.1-.5-1.6-1.1-1.5-2.1-3.1-3.2-4.6,0,0,0-.1-.1-.2h1.2c1,1.4,2,2.9,3.1,4.6,1.2-1.7,2.2-3.2,3.2-4.7Z"/>
      <path d="M109.5,34.9h1.2c1,1.5,2,3,3.1,4.6,1.1-1.6,2.1-3.1,3.2-4.6h1.2c-.6.8-1.1,1.6-1.6,2.3-.1.2-.2.3-.3.5-.6.9-1.5,1.7-1.8,2.7s-.1,2.2-.2,3.2c0,.2,0,.3-.1.5h-1v-2.7c0-.6-.1-1.1-.5-1.6-1-1.3-1.9-2.7-2.8-4.1,0-.2-.2-.4-.4-.8Z"/>
      <path d="M85,43.2v1h-6.3v-9.2h1v8.3c1.8-.1,3.5-.1,5.3-.1Z"/>
      <path d="M137.7,34.9h.9v9.3c-.3,0-.6,0-.9.1v-9.4Z"/>
      <path d="M106.7,34.9h.9v9.3c-.3,0-.6,0-.9.1v-9.4Z"/>
      <path d="M75.8,17.5v1.6h-1.9v-1.6h1.9Z"/>
      <path d="M71,17.5h1.9v1.6h-1.9v-1.6Z"/>
      <path d="M136.9,19.1v-1.6h1.9v1.6h-1.9Z"/>
      <path d="M93.7,19.1v-1.6h1.9v1.6h-1.9Z"/>
      <path d="M92.6,17.5v1.6h-1.9v-1.6h1.9Z"/>
      <path d="M107.7,34.1h-1.2v-1.1h1.2v1.1Z"/>
      <path d="M138.8,34.1h-1.2v-1.1h1.2v1.1Z"/>
      <path d="M36.9,25.2c-.2-.7-.4-1.5-.6-2.3-.4.2-.7.3-1.1.5-.3-.5-.6-1.1-.9-1.6.2-.5.4-1,.6-1.5-.5-.5-1-1.1-1.6-1.7-.3.5-.5,1-.8,1.5-.5-.2-1-.4-1.5-.7,0-.6-.1-1.2-.1-2-.7-.1-1.4-.1-2.2-.1v2.1c-.6.3-1.1.5-1.8.8-.3-.6-.7-1.1-1.1-1.7-.7.6-1.4,1.3-2.1,1.9.4.7.7,1.3,1.1,1.9-.4.7-.7,1.4-1.1,2.1-.6-.2-1.1-.4-1.7-.6-.2,1.2-.7,2.3-.7,3.6h-1c-.1-.7-.3-1.5-.4-2.3.6-.3,1.1-.6,1.7-1-.5-1.1-.9-2.2-1.4-3.3-.7.3-1.2.5-1.9.8-.6-.8-1.2-1.5-1.9-2.3.3-.6.6-1.3,1-2.1-1.1-.8-2.1-1.7-3.3-2.6-.4.8-.8,1.4-1.2,2.1-.9-.3-1.9-.7-3-1.1-.1-.9-.3-1.9-.4-2.8,5.4-7.2,16.3-10.3,25.5-5.2,4.4,2.5,7.5,6.1,9.1,10.9.7,1.9,1.1,3.8.9,5.9-.1,0-.2.1-.3.1-.2-.4-.3-.8-.5-1.1.1-.4.3-.8.4-1.2-.3-.4-.5-.7-.9-1.2-.2.4-.3.7-.5,1.1-.3-.1-.6-.3-.9-.4v-1.5c-.4,0-.8,0-1.3-.1-.1.5-.1,1-.2,1.6-.3.2-.6.4-1,.6-.2-.4-.4-.7-.6-1.2-.4.5-.8,1-1.2,1.4.2.4.3.9.5,1.3-.2.5-.4,1-.7,1.5-.2-.1-.5-.1-.9-.1h0Z"/>
      <path d="M44.1,30.8c-1,6.7-11.1,14.1-18.5,13.5.1-.3.2-.7.4-1,.8-1.3,1.5-2.7,2.4-3.9,3.4-4.2,7.8-7,13.1-8.3.6-.1,1.3-.2,1.9-.3h.7Z"/>
      <path d="M27.7,28.9c-6.1,2.1-11.8,5-16.9,9-1.8-1.3-4.2-5.7-4.6-8.1,7.2-.3,14.4-.6,21.5-.9Z"/>
      <path d="M18.6,27.3H5.7c-.6-2.3-.2-6.7,1-9.4,5.2-.8,11.4,3.2,11.9,9.4ZM6.8,19c.2,2.7.4,5.2.7,7.8h.1c.2-2.6.4-5.1.5-7.8h-1.3ZM9,19.1c.2,2.6.4,5.1.6,7.6h.1c.2-2.5.3-4.9.5-7.4-.5-.1-.8-.1-1.2-.2ZM11.7,26.8h.1c.2-2.3.3-4.5.5-6.8-.4-.2-.7-.3-1.2-.5.2,2.6.4,5,.6,7.3ZM13.3,20.7c.2,2.2.4,4.2.5,6.2h.1c.1-1.8.2-3.6.3-5.4-.2-.3-.5-.5-.9-.8ZM15.6,22.9c.1,1.4.2,2.7.4,3.9.2-3.4.5-2.8-.4-3.9Z"/>
      <path d="M23.8,44.3c-2.3-.2-4.5-.7-6.7-1.7.4-.5.8-.9,1.2-1.3,5-5.3,10.9-9.2,18-11.1,1.6-.4,3.2-.7,4.9-.7-8,2.3-14.1,6.9-17.4,14.8Z"/>
      <path d="M33,29.5c-.6.3-1.2.5-1.7.8-5.8,2.5-10.8,6.2-15,11-.2.2-.4.4-.7.8-1.3-.9-2.5-1.8-3.9-2.8.5-.4.9-.7,1.2-1,5.8-4.2,12.1-7.1,19.1-8.7.4-.1.7-.1,1-.1h0Z"/>
      <path d="M35,27.3h-1.1c0-1,.3-2-.4-2.9.1,1,.1,1.9.2,2.9h-1.6c.1-1.5.2-3,.3-4.6-.2-.2-.5-.4-1-.7.2,1.9.3,3.5.4,5.3h-1.6c.1-1.8.2-3.6.3-5.4h-1c.2,1.8.3,3.6.5,5.4h-1.6c.1-1.7.2-3.4.4-5.2-.4.2-.6.3-.9.5.1,1.6.2,3.1.3,4.7h-1.6c.1-1.1.1-2.2.2-3.4-1.1,1.1-.4,2.3-.5,3.4h-1.7c.3-2,1-3.8,2.5-5.1,2-1.8,4.7-1.5,6.3.6,1.1,1.3,1.6,2.8,1.6,4.5Z"/>
      <path d="M44.5,27.3c-2-.1-4-.2-6-.3.3-1.3.7-2.5,1.7-3.5,1.3-1.3,2.7-1.1,3.6.5.6,1,.8,2.1.7,3.3ZM42,23.1c-1,.4-.4,1-.5,1.5,0,.5.1,1,.1,1.5h.2c.1-1,.2-1.9.2-3ZM42.5,23.3c.1,1.2.2,2.2.3,3.3q.3-2.8-.3-3.3ZM41,23.4c-.6.6-.6,1.5-.2,3.2,0-1.1.1-2,.2-3.2ZM39.8,26.6v-1.6c-.5.5-.1,1.1,0,1.6ZM43.7,26.6h0c.1-.5.1-.9.1-1.4h-.1v1.4Z"/>
      <path d="M36.9,25.2c0,.8.1,1.7-.9,2.3,0-.6-.1-1.1-.1-1.6.3-.2.7-.5,1-.7h0Z"/>
      <path d="M33,29.5c.1-.1.2-.1.3-.2v.1c-.1,0-.2,0-.3.1h0Z"/>
    </g>
  </g>
  <g>
    <g>
      <path class="st0" d="M7.6,24.19c0-2.24.41-4.39,1.15-6.38,1.69-.16,3.46.1,5.13.83,3.47,1.51,5.6,4.71,5.88,8.03h-2.4l.22-3.34c-.19-.33-.41-.65-.64-.96l.36,4.3h-1.9l.37-5.55c-.3-.26-.62-.51-.96-.73l.52,6.28h-1.9l.46-6.82c-.15-.07-.3-.15-.45-.21-.22-.1-.45-.18-.67-.26l.61,7.29h-1.9l.5-7.54c-.37-.09-.75-.16-1.12-.21l.57,7.75h-1.9l.58-7.81c-.43-.02-.86,0-1.29.04l.65,7.77h-1.68c-.11-.81-.17-1.64-.17-2.48"/>
      <path class="st0" d="M32.43,22.34c-.2-.18-.41-.34-.63-.46-.1-.06-.2-.11-.3-.15l.45,4.95h-1.51l.38-5.14c-.33-.05-.67-.05-1,.02l.46,5.13h-1.51l.35-4.91c-.29.13-.58.3-.85.52l.35,4.4h-1.52l.28-3.47c-.25.33-.47.72-.66,1.15l.21,2.32h-1.58c.05-.42.13-.84.24-1.26,1-3.81,4.08-5.6,6.59-4.17,1.67.95,2.65,3.11,2.7,5.43h-1.07l.12-1.66c-.14-.54-.33-1.04-.57-1.48l.28,3.15h-1.51l.32-4.33Z"/>
      <path class="st0" d="M17.04,40.16c-1.3-.72-2.5-1.59-3.58-2.59,2.58-2.07,5.68-4,9.2-5.64,3.91-1.82,7.75-3,11.3-3.6-3.25,1.07-6.63,2.79-9.79,5.09-2.79,2.02-5.21,4.33-7.13,6.74"/>
      <path class="st0" d="M24.58,42.39c-2.21-.16-4.31-.7-6.23-1.57,1.76-2.16,4-4.29,6.67-6.23,5.81-4.21,11.86-6.19,16.45-6.04-3.03.47-6.32,1.85-9.28,4-3.78,2.74-6.54,6.38-7.61,9.84"/>
      <path class="st0" d="M43.32,29.84c-2.37,7.26-9.17,12.52-17.21,12.6.98-2.92,3.34-6.11,6.94-8.71,3.53-2.55,7.22-3.81,10.27-3.89"/>
      <path class="st0" d="M28.7,28.09c-2.21.65-4.44,1.5-6.65,2.53-3.59,1.67-6.85,3.71-9.61,5.94-1.97-2.13-3.44-4.74-4.21-7.62l20.48-.84Z"/>
      <path class="st0" d="M35.81,26.85c-.17.02-.34.04-.51.05,0-.44-.04-.87-.09-1.3l.94-.65-.55-2.27-.99.63c-.22-.54-.49-1.04-.81-1.49l.61-1.41-1.49-1.57-.66,1.48-.14-.09c-.41-.25-.83-.43-1.26-.53l-.04-1.85-2.13-.15.07,1.99c-.54.13-1.08.37-1.58.7l-.95-1.68-1.97,1.8,1.06,1.72c-.4.57-.74,1.22-1.02,1.94l-1.63-.62-.72,3.12.8.25h-1.65c-.04-.72-.16-1.43-.34-2.12l1.63-.86-1.26-3.12-1.76.82c-.48-.76-1.05-1.47-1.71-2.13l.99-1.93-3.05-2.38-1.09,2.05c-.1-.05-.19-.1-.29-.14-.84-.4-1.71-.7-2.59-.9l-.35-2.7c3.31-4.29,8.5-7.06,14.35-7.06,9.83,0,17.82,7.82,18.08,17.55l-.34.27c-.12-.41-.27-.8-.45-1.14l.43-1.11-.86-1.17-.46,1.16-.08-.07c-.24-.18-.48-.3-.74-.37l.05-1.4-1.25-.03-.04,1.5c-.32.12-.64.31-.95.57l-.48-1.22-1.19,1.39.52,1.25c-.25.43-.47.92-.66,1.47l-.88-.43-.51,2.18Z"/>
      <path class="st0" d="M42.92,26.67c-.28-.04-.57-.08-.87-.11l.21-3.34c-.09-.1-.19-.18-.29-.26-.09-.06-.18-.11-.27-.15l.3,3.74c-.3-.03-.59-.06-.9-.08l.23-3.75c-.19-.02-.39,0-.59.07l.3,3.68c-.29-.02-.59-.03-.89-.04l.21-3.46c-.17.1-.33.23-.5.39l.22,3.07c-.29,0-.59-.01-.89,0l.17-2.44c-.14.21-.27.44-.39.71l.15,1.74c-.36,0-.72.01-1.09.03.03-.17.07-.34.11-.51.73-2.88,2.6-4.3,4.04-3.27.95.68,1.47,2.26,1.45,4h-.63l.1-1.64c-.09-.4-.21-.76-.36-1.07l.21,2.72h-.04Z"/>
      <path class="st0" d="M5.95,12.86l-.52,1.05c-.26.51-.19.97.22,1.17h0c.32.16.6.02.82-.22-.01.23.05.49.36.64h0c.15.08.3.09.45.04.2-.07.38-.24.51-.51l.5-1-2.36-1.17ZM6.93,15.22c-.28-.14-.31-.43-.15-.75l.35-.7.81.4-.36.72c-.17.34-.41.45-.64.33h0ZM5.81,14.82h0c-.26-.13-.31-.43-.13-.79l.39-.79.83.41-.37.74c-.2.41-.46.55-.72.43M6.31,19.44l-.07.34.33.07.07-.34-.33-.07ZM6.46,18.76l-.07.34.33.07.07-.34-.33-.07ZM3.53,18.65c-.14.64.16,1.16.9,1.32l1.47.32.06-.29-1.49-.33c-.56-.12-.78-.49-.68-.96.11-.49.48-.72,1.04-.6l1.48.32.06-.29-1.49-.33c-.73-.16-1.21.19-1.35.83M2.82,23.67v.3s1.05-.01,1.05-.01l1.6,1.07v-.35s-1.33-.88-1.33-.88l1.3-.9v-.36s-1.58,1.11-1.58,1.11h-1.04ZM6.07,28.5l.08.34.33-.08-.08-.34-.33.08ZM5.91,27.82l.08.34.33-.08-.08-.34-.33.08ZM3.22,29.01c.16.64.65.97,1.39.79l1.46-.36-.07-.29-1.49.36c-.56.14-.92-.09-1.03-.56-.12-.49.12-.86.67-.99l1.47-.36-.07-.29-1.49.36c-.72.18-1,.7-.85,1.33M4.43,33.07l.13.27.63-.31.76.25-.69,1.47.17.33.8-1.71,1.53.5-.17-.34-2.08-.65,1.41-.7-.13-.27-2.35,1.17ZM6.87,38.46l.59-.15c.33.35.75.43,1.09.17h0c.31-.26.31-.6.04-1.14-.27-.53-.24-.72-.05-.88h0c.18-.15.47-.1.68.16.17.21.26.46.25.77h.29c0-.35-.09-.63-.33-.93-.31-.39-.78-.48-1.1-.22h0c-.34.28-.31.62-.04,1.17.26.5.23.69.04.85h0c-.2.17-.49.1-.72-.17-.23-.28-.3-.57-.28-.94h-.29c-.02.36.06.68.25.97l-.51.04.08.3ZM10,41.16l1.49,1.2.17-.21-1.26-1.02.58-.72,1.12.9.17-.21-1.12-.9.56-.7,1.25,1.01.17-.21-1.48-1.19-1.65,2.05ZM13.94,44.13l.27.13.53-1.06,1.36.68-.53,1.06.27.13,1.17-2.35-.27-.13-.52,1.05-1.36-.68.52-1.05-.27-.13-1.17,2.35ZM18.71,46.22l.29.08.69-2.54-.29-.08-.69,2.54ZM19.43,43.45l.35.09.09-.33-.35-.09-.09.33ZM21.93,47.03l.3.03.09-1.02.75.07.67,1.09.36.03-.71-1.14c.42-.04.74-.27.78-.7h0c.02-.21-.04-.4-.16-.54-.15-.18-.4-.3-.72-.33l-1.13-.1-.23,2.62ZM22.34,45.77l.09-1.06.81.07c.42.04.65.25.62.58h0c-.03.34-.33.52-.72.49l-.8-.07ZM30.36,46.84l1.12-.33c.55-.16.84-.53.71-.96h0c-.1-.35-.39-.45-.72-.46.17-.14.32-.37.23-.7h0c-.05-.17-.15-.29-.28-.36-.19-.1-.44-.11-.73-.03l-1.07.32.75,2.52ZM31.41,44.52c.09.3-.1.52-.45.62l-.75.22-.26-.87.77-.23c.36-.11.61,0,.68.24h0ZM31.89,45.61h0c.08.29-.1.53-.49.64l-.85.25-.26-.89.8-.24c.44-.13.72-.04.8.23M35.23,45.2l1.68-.94-.13-.24-1.42.79-.45-.8,1.25-.7-.13-.24-1.25.7-.44-.78,1.4-.78-.13-.24-1.66.93,1.28,2.3ZM39.44,42.66l1.33-1.18-.18-.2-1.11.98-1.56-1.76-.22.2,1.75,1.97ZM42.9,39.42l1.13-1.55-.22-.16-.96,1.31-.74-.54.85-1.16-.22-.16-.85,1.16-.73-.53.95-1.3-.22-.16-1.12,1.54,2.12,1.55ZM45.71,35.37l.37-.84c.33-.76.03-1.51-.64-1.81h0c-.68-.3-1.43,0-1.76.75l-.37.84,2.41,1.05ZM43.91,33.59c.27-.61.86-.81,1.39-.58h0c.53.24.78.81.51,1.42l-.25.56-1.91-.83.25-.56ZM47.62,30.43l.06-.29-2.57-.56-.06.29,2.57.56ZM44.82,29.85l.08-.35-.33-.07-.08.35.33.07ZM48.32,26.34v-.3s-1.03-.04-1.03-.04l-1.54-1.15v.35s1.27.94,1.27.94l-1.35.84v.36s1.62-1.03,1.62-1.03l1.04.04ZM48.32,22.02l-.36-1.89-.27.05.31,1.59-.9.17-.27-1.41-.27.05.27,1.41-.88.17-.3-1.58-.27.05.36,1.87,2.58-.5ZM46.95,16.43c-.2-.48-.61-.72-1.03-.55h0c-.37.16-.47.49-.37,1.08.1.58.03.76-.2.85h0c-.22.09-.48-.04-.6-.36-.1-.25-.11-.51-.02-.81l-.28-.07c-.1.33-.09.62.05.98.19.46.61.68.99.53h0c.4-.17.48-.5.37-1.11-.1-.56-.02-.73.2-.82h0c.24-.1.5.04.64.37.14.34.12.63,0,.98l.27.09c.14-.4.14-.77-.02-1.15M45.34,13.13l-.15-.25-2.26,1.34.15.25,2.26-1.34ZM42.89,14.62l-.18-.31-.29.17.18.31.29-.17Z"/>
      <path class="st0" d="M13.73,9.02c.46-.33.61-.81.3-1.23h0c-.27-.38-.63-.35-1.14-.15-.44.17-.56.19-.66.05h0c-.07-.11-.04-.26.14-.39.18-.13.42-.19.71-.19v-.53c-.36-.02-.69.08-1,.31-.43.32-.56.8-.28,1.18h0c.31.43.67.35,1.18.14.42-.17.54-.16.63-.04h0c.09.13.03.29-.16.43-.24.18-.52.22-.82.2l-.03.53c.42.04.83-.08,1.15-.32M15.95,7.32l.54-.24-.02-.64,1.02-.45.46.44.55-.24-2.09-1.97-.49.21.03,2.88ZM16.46,5.89l-.02-.92.66.64-.64.28ZM20.39,5.49l.57-.11-.15-.79.24-.37,1.01.95.68-.13-1.38-1.28.84-1.3-.69.13-.83,1.33-.22-1.13-.57.11.49,2.58ZM24.38,4.78l.59.02.26-.58,1.11.04.22.6.6.02-1.03-2.69-.53-.02-1.23,2.6ZM25.46,3.72l.38-.84.32.87-.7-.03ZM29.18,5.08l.55.17.24-.81.44.13.3.97.65.19-.35-1.08c.36-.02.65-.21.77-.62h0c.07-.25.05-.47-.04-.65-.12-.21-.34-.38-.66-.47l-1.15-.34-.75,2.52ZM30.11,3.94l.22-.72.55.16c.27.08.4.25.33.49h0c-.06.22-.26.32-.53.24l-.56-.17ZM33.85,6.7l.51.27.49-.93,1.63-.93-.58-.31-1.06.64-.06-1.23-.6-.32.15,1.88-.48.92ZM36.4,8.13l.46.37.56-.31.87.7-.18.61.47.38.78-2.77-.42-.33-2.54,1.36ZM37.89,7.92l.81-.45-.26.88-.54-.44Z"/>
    </g>
    <g>
      <path class="st0" d="M57.82,14.62l1.22-1.46c.84.7,1.73,1.14,2.8,1.14.84,0,1.35-.33,1.35-.88v-.03c0-.52-.32-.79-1.89-1.19-1.89-.48-3.11-1-3.11-2.87v-.03c0-1.7,1.37-2.83,3.28-2.83,1.37,0,2.53.43,3.48,1.19l-1.07,1.55c-.83-.58-1.65-.92-2.44-.92s-1.21.36-1.21.82v.03c0,.62.4.82,2.02,1.23,1.9.5,2.97,1.18,2.97,2.81v.03c0,1.86-1.42,2.91-3.44,2.91-1.42,0-2.85-.5-3.98-1.5Z"/>
      <path class="st0" d="M70.05,6.54h1.9l4.02,9.45h-2.16l-.86-2.1h-3.97l-.86,2.1h-2.1l4.02-9.45ZM72.22,12.07l-1.25-3.04-1.25,3.04h2.49Z"/>
      <path class="st0" d="M77.42,6.61h2.06v4.1l3.81-4.1h2.49l-3.82,3.98,3.99,5.4h-2.48l-2.91-3.99-1.09,1.13v2.87h-2.06V6.61Z"/>
      <path class="st0" d="M90.15,6.54h1.9l4.02,9.45h-2.16l-.86-2.1h-3.97l-.86,2.1h-2.1l4.02-9.45ZM92.32,12.07l-1.25-3.04-1.25,3.04h2.49Z"/>
      <path class="st0" d="M97.52,6.61h4.29c1.19,0,2.12.33,2.73.95.52.52.8,1.26.8,2.14v.03c0,1.51-.82,2.47-2.01,2.91l2.29,3.35h-2.41l-2.01-3h-1.62v3h-2.06V6.61ZM101.67,11.17c1,0,1.58-.54,1.58-1.33v-.03c0-.88-.62-1.34-1.62-1.34h-2.05v2.69h2.09Z"/>
      <path class="st0" d="M109.51,12.29l-3.6-5.68h2.41l2.24,3.77,2.28-3.77h2.34l-3.6,5.64v3.74h-2.06v-3.7Z"/>
      <path class="st0" d="M118.21,6.54h1.9l4.02,9.45h-2.16l-.86-2.1h-3.97l-.86,2.1h-2.1l4.02-9.45ZM120.38,12.07l-1.25-3.04-1.25,3.04h2.49Z"/>
      <path class="st0" d="M58.46,20.01h4.35c1.07,0,1.92.29,2.45.83.43.43.64.95.64,1.59v.03c0,1.06-.56,1.65-1.23,2.02,1.09.42,1.76,1.05,1.76,2.3v.03c0,1.72-1.39,2.57-3.51,2.57h-4.46v-9.38ZM63.86,22.78c0-.62-.48-.96-1.35-.96h-2.04v1.98h1.9c.91,0,1.49-.29,1.49-.99v-.03ZM62.86,25.52h-2.38v2.06h2.45c.91,0,1.46-.32,1.46-1.02v-.03c0-.63-.47-1.02-1.53-1.02Z"/>
      <path class="st0" d="M67.99,25.37v-5.36h2.06v5.31c0,1.53.76,2.32,2.02,2.32s2.02-.76,2.02-2.25v-5.37h2.06v5.29c0,2.84-1.59,4.23-4.11,4.23s-4.06-1.41-4.06-4.17ZM69.64,17.57h1.96v1.7h-1.96v-1.7ZM72.56,17.57h1.96v1.7h-1.96v-1.7Z"/>
      <path class="st0" d="M80.9,25.69l-3.6-5.68h2.41l2.24,3.77,2.28-3.77h2.34l-3.6,5.64v3.74h-2.06v-3.7Z"/>
      <path class="st0" d="M87.71,25.37v-5.36h2.06v5.31c0,1.53.76,2.32,2.02,2.32s2.02-.76,2.02-2.25v-5.37h2.06v5.29c0,2.84-1.59,4.23-4.11,4.23s-4.06-1.41-4.06-4.17ZM89.36,17.57h1.96v1.7h-1.96v-1.7ZM92.28,17.57h1.96v1.7h-1.96v-1.7Z"/>
      <path class="st0" d="M97.99,20.01h2.06v4.1l3.81-4.1h2.49l-3.82,3.98,3.99,5.4h-2.48l-2.91-3.99-1.09,1.13v2.87h-2.06v-9.38Z"/>
      <path class="st0" d="M109.09,31l1.05-1.54c-1.11-.16-2.2-.63-3.08-1.43l1.22-1.46c.84.7,1.73,1.14,2.8,1.14.84,0,1.35-.33,1.35-.88v-.03c0-.52-.32-.79-1.89-1.19-1.89-.48-3.11-1-3.11-2.87v-.03c0-1.7,1.37-2.83,3.28-2.83,1.37,0,2.53.43,3.48,1.19l-1.07,1.55c-.83-.58-1.65-.92-2.44-.92s-1.21.36-1.21.82v.03c0,.62.4.82,2.02,1.23,1.9.5,2.97,1.18,2.97,2.81v.03c0,1.66-1.13,2.67-2.79,2.87l-.9,2.22-1.7-.71Z"/>
      <path class="st0" d="M116.3,20.01h7.07v1.84h-5.02v1.9h4.42v1.84h-4.42v1.97h5.09v1.84h-7.14v-9.38Z"/>
      <path class="st0" d="M125.28,20.01h2.06v3.71h3.81v-3.71h2.06v9.38h-2.06v-3.77h-3.81v3.77h-2.06v-9.38Z"/>
      <path class="st0" d="M135.56,20.01h2.06v9.38h-2.06v-9.38ZM135.58,17.57h2.01v1.7h-2.01v-1.7Z"/>
      <path class="st0" d="M139.96,20.01h4.29c1.19,0,2.12.33,2.73.95.52.52.8,1.26.8,2.14v.03c0,1.51-.82,2.47-2.01,2.91l2.29,3.35h-2.41l-2.01-3h-1.62v3h-2.06v-9.38ZM144.12,24.57c1,0,1.58-.54,1.58-1.33v-.03c0-.88-.62-1.34-1.62-1.34h-2.05v2.69h2.09Z"/>
      <path class="st0" d="M58.46,33.41h4.35c1.07,0,1.92.29,2.45.83.43.43.64.95.64,1.59v.03c0,1.06-.56,1.65-1.23,2.02,1.09.42,1.76,1.05,1.76,2.3v.03c0,1.72-1.39,2.57-3.51,2.57h-4.46v-9.38ZM63.86,36.18c0-.62-.48-.96-1.35-.96h-2.04v1.98h1.9c.91,0,1.49-.29,1.49-.99v-.03ZM62.86,38.92h-2.38v2.06h2.45c.91,0,1.46-.32,1.46-1.02v-.03c0-.63-.47-1.02-1.53-1.02Z"/>
      <path class="st0" d="M68.14,33.41h7.07v1.84h-5.02v1.9h4.42v1.84h-4.42v1.97h5.09v1.84h-7.14v-9.38Z"/>
      <path class="st0" d="M77.11,33.41h2.06v7.5h4.68v1.88h-6.74v-9.38Z"/>
      <path class="st0" d="M85.41,33.41h7.07v1.84h-5.02v1.9h4.42v1.84h-4.42v1.97h5.09v1.84h-7.14v-9.38Z"/>
      <path class="st0" d="M94.38,33.41h3.66c2.95,0,4.98,2.02,4.98,4.66v.03c0,2.64-2.04,4.69-4.98,4.69h-3.66v-9.38ZM96.45,35.27v5.65h1.59c1.69,0,2.83-1.14,2.83-2.8v-.03c0-1.66-1.14-2.83-2.83-2.83h-1.59Z"/>
      <path class="st0" d="M104.95,33.41h2.06v9.38h-2.06v-9.38ZM104.98,30.97h2.01v1.7h-2.01v-1.7Z"/>
      <path class="st0" d="M112,39.09l-3.6-5.68h2.41l2.24,3.77,2.28-3.77h2.34l-3.6,5.64v3.74h-2.06v-3.7Z"/>
      <path class="st0" d="M118.96,33.41h7.07v1.84h-5.02v1.9h4.42v1.84h-4.42v1.97h5.09v1.84h-7.14v-9.38Z"/>
      <path class="st0" d="M127.29,41.42l1.22-1.46c.84.7,1.73,1.14,2.8,1.14.84,0,1.35-.33,1.35-.88v-.03c0-.52-.32-.79-1.89-1.19-1.89-.48-3.11-1-3.11-2.87v-.03c0-1.7,1.37-2.83,3.28-2.83,1.37,0,2.53.43,3.48,1.19l-1.07,1.55c-.83-.58-1.65-.92-2.44-.92s-1.21.36-1.21.82v.03c0,.62.4.82,2.02,1.23,1.9.5,2.97,1.18,2.97,2.81v.03c0,1.86-1.42,2.91-3.44,2.91-1.42,0-2.85-.5-3.98-1.5Z"/>
      <path class="st0" d="M136.6,33.41h2.06v9.38h-2.06v-9.38ZM136.63,30.97h2.01v1.7h-2.01v-1.7Z"/>
    </g>
  </g>
</svg>