<?xml version="1.0" encoding="utf-8"?>
<!-- Generator: Adobe Illustrator 24.2.3, SVG Export Plug-In . SVG Version: 6.00 Build 0)  -->
<svg version="1.1" id="katman_1" xmlns="http://www.w3.org/2000/svg" xmlns:xlink="http://www.w3.org/1999/xlink" x="0px" y="0px"
	 viewBox="0 0 150 49.4" style="enable-background:new 0 0 150 49.4;" xml:space="preserve">
<style type="text/css">
	.st0{fill:#FFFFFF;}
</style>
<g>
	<g>
		<path class="st0" d="M50.2,24.7c0,13.7-11.2,24.7-25,24.7S0.3,38.2,0.4,24.5C0.5,11,11.7,0,25.5,0C39.1,0,50.3,11.2,50.2,24.7z
			 M49.8,24.8c0-13.4-10.9-24.3-24.4-24.3C11.9,0.4,0.9,11.3,0.8,24.6C0.8,38,11.8,49,25.3,49S49.7,38.2,49.8,24.8z"/>
		<path class="st0" d="M59.8,29.2c0-3.1,0-6.1,0-9.3c1.9,0,3.7-0.2,5.5,0.1c0.9,0.2,1.6,0.7,1.8,1.7c0.3,1,0,1.7-1,2.6
			c0.2,0.1,0.4,0.3,0.6,0.4c1.4,1,1.4,3.1-0.2,4c-0.5,0.3-1.2,0.5-1.7,0.5C63.2,29.2,61.6,29.2,59.8,29.2z M61.8,27.4
			c1,0,1.9,0,2.8,0c0.7,0,1-0.4,1-0.9s-0.3-0.9-1-1c-0.9-0.1-1.9,0-2.9,0C61.8,26.1,61.8,26.6,61.8,27.4z M61.8,23.6
			c0.9,0,1.7,0,2.5,0c0.5,0,0.8-0.4,0.8-0.9s-0.4-0.9-0.8-0.9c-0.8-0.1-1.6,0-2.5,0C61.8,22.4,61.8,23,61.8,23.6z"/>
		<path class="st0" d="M143.3,26.3c0,1,0,1.9,0,2.9c-0.7,0-1.3,0-2,0c0-3,0-6.1,0-9.2c0.2,0,0.5-0.1,0.7-0.1c1.2,0,2.3,0,3.5,0
			c0.4,0,0.7,0,1.1,0.1c1.3,0.2,2.2,1,2.4,2.2c0.3,1.4-0.1,2.6-1.2,3.4c-0.2,0.1-0.4,0.2-0.6,0.4c0.7,1.1,1.4,2.1,2.2,3.2
			c-0.9,0-1.6,0-2.4,0c-0.6-0.9-1.3-1.9-2-2.9C144.4,26.3,143.9,26.3,143.3,26.3z M143.4,21.7c0,1,0,1.8,0,2.7c0.8,0,1.5,0,2.2,0
			c0.9-0.1,1.4-0.6,1.4-1.3c0-0.7-0.5-1.3-1.3-1.3C144.9,21.7,144.2,21.7,143.4,21.7z"/>
		<path class="st0" d="M132.4,19.9c0.7,0,1.3,0,2,0c0,3.1,0,6.1,0,9.2c-0.6,0-1.2,0-2,0c0-1.2,0-2.4,0-3.6c-1.3,0-2.5,0-3.8,0
			c0,1.2,0,2.4,0,3.6c-0.7,0-1.3,0-2,0c0-3.1,0-6.1,0-9.2c0.7,0,1.3,0,2,0c0,1.2,0,2.3,0,3.5c1.3,0,2.6,0,3.9,0
			C132.4,22.3,132.4,21.1,132.4,19.9z"/>
		<path class="st0" d="M117.6,29.2c0-3.1,0-6.1,0-9.2c2.3,0,4.6,0,7,0c0,0.5,0,1,0,1.7c-1.6,0-3.2,0-4.9,0c0,0.7,0,1.2,0,1.9
			c1.4,0,2.8,0,4.3,0c0,0.6,0,1.1,0,1.8c-1.4,0-2.8,0-4.3,0c0,0.7,0,1.3,0,1.9c1.6,0,3.2,0,4.9,0c0,0.7,0,1.2,0,1.9
			C122.3,29.2,120,29.2,117.6,29.2z"/>
		<path class="st0" d="M107.6,20c-1.3,1.4-2.5,2.6-3.8,3.9c0.7,0.9,1.3,1.8,1.9,2.6c0.6,0.9,1.3,1.7,2,2.7c-0.9,0-1.6,0-2.5,0
			c-0.9-1.2-1.9-2.6-2.9-3.9c-0.4,0.4-0.8,0.7-1.1,1c0,1,0,1.9,0,2.9c-0.7,0-1.3,0-2,0c0-3.1,0-6.1,0-9.2c0.7,0,1.3,0,2,0
			c0,1.3,0,2.5,0,3.7c0.1,0,0.1,0.1,0.2,0.1c1.2-1.3,2.4-2.5,3.6-3.8C105.9,20,106.7,20,107.6,20z"/>
		<path class="st0" d="M113,29.3c-0.3,0.7-0.6,1.4-0.9,2.2c-0.6-0.2-1.1-0.4-1.7-0.7c0.3-0.5,0.6-0.9,0.9-1.4
			c-1.1-0.4-2.2-0.6-3-1.6c0.4-0.5,0.8-0.9,1.1-1.3c0.7,0.3,1.4,0.7,2.1,0.9c0.5,0.1,1.1,0.1,1.6,0c0.2-0.1,0.5-0.4,0.5-0.7
			c0-0.2-0.2-0.6-0.4-0.7c-0.4-0.2-0.9-0.4-1.4-0.5c-0.5-0.2-0.9-0.3-1.4-0.4c-1.3-0.5-1.8-1.2-1.8-2.6c0-1.2,0.7-2.1,1.9-2.5
			c1.7-0.5,3.3-0.2,4.8,0.9c-0.4,0.5-0.7,1-1,1.5c-0.6-0.3-1.2-0.5-1.8-0.7c-0.2-0.1-0.5-0.1-0.8-0.1c-0.5,0-1,0.1-1.1,0.7
			s0.3,0.9,0.8,1c0.7,0.2,1.4,0.4,2,0.6c1.6,0.5,2.1,1.3,2.1,2.7c-0.1,1.3-0.8,2.2-2.3,2.6C113.3,29.3,113.2,29.3,113,29.3z"/>
		<path class="st0" d="M69.4,19.9c0.7,0,1.3,0,2,0c0,1,0,2,0,3c0,0.8,0,1.7,0,2.5c0.1,1.3,0.8,2,2,2s1.9-0.7,1.9-2
			c0.1-1.6,0-3.2,0-4.7c0-0.3,0-0.5,0.1-0.8c0.7,0,1.3,0,1.9,0c0,0.2,0.1,0.4,0.1,0.6c0,1.6,0,3.2,0,4.7c0,1.5-0.4,2.9-1.9,3.5
			c-1.6,0.7-3.2,0.7-4.7-0.2c-0.9-0.6-1.4-1.5-1.5-2.5C69.3,24.1,69.4,22.1,69.4,19.9z"/>
		<path class="st0" d="M95.2,19.9c0.7,0,1.3,0,1.9,0c0.1,0.1,0.1,0.1,0.1,0.2c0,2,0.1,4-0.1,6s-1.4,3.1-3.4,3.2
			c-0.7,0.1-1.4,0-2-0.1c-1.4-0.3-2.4-1.3-2.5-2.6C89,24.4,89,22.2,89,19.9c0.8,0,1.4,0,2.1,0c0,0.3,0,0.6,0,0.9c0,1.5,0,3,0,4.5
			c0.1,1.6,1.2,2.5,2.7,2c0.9-0.2,1.3-0.9,1.4-2c0-1.4,0-2.8,0-4.3C95.2,20.8,95.2,20.4,95.2,19.9z"/>
		<path class="st0" d="M65.7,39.4c0.3,0.1,0.5,0.2,0.7,0.4c1.5,0.9,1.6,2.8,0.1,3.8c-0.5,0.3-1.2,0.5-1.8,0.6c-0.4,0.1-0.8,0-1.3,0
			c-1.1,0-2.3,0-3.5,0c0-3.1,0-6.1,0-9.3c0.3,0,0.6,0,0.9,0c1,0,2,0,3,0c0.5,0,1,0.1,1.5,0.3c1.8,0.6,2.1,2.6,0.7,3.9
			C66.1,39.2,65.9,39.3,65.7,39.4z M61.1,43.2c1.3,0,2.6,0,3.9,0c0.2,0,0.4-0.1,0.6-0.2c0.6-0.3,0.9-0.7,0.9-1.4s-0.3-1.1-0.9-1.3
			c-1.5-0.5-3-0.3-4.4-0.2C61.1,41.2,61.1,42.2,61.1,43.2z M61.1,39.1c1.2-0.1,2.4,0,3.6-0.2c0.8-0.1,1.3-0.8,1.3-1.6
			c0-0.7-0.5-1.3-1.3-1.4c-1.2-0.1-2.4,0-3.6,0C61.1,37,61.1,38,61.1,39.1z"/>
		<path class="st0" d="M78.7,19.9c0.8,0,1.6,0,2.4,0c0.7,1.1,1.4,2.3,2.2,3.6c0.8-1.3,1.5-2.4,2.3-3.6c0.7,0,1.5,0,2.3,0
			c-0.6,0.9-1,1.7-1.6,2.4c-1.5,1.9-2.4,3.9-2,6.4c0,0.1,0,0.2,0,0.4c-0.6,0-1.2,0-2,0c0-0.9,0-1.8,0-2.7c0-0.7-0.1-1.2-0.5-1.8
			c-0.9-1.3-1.6-2.5-2.5-3.8C79.1,20.6,78.9,20.3,78.7,19.9z"/>
		<path class="st0" d="M96,34.8c1.5,0.1,3,0,4.5,0.3c2.4,0.4,3.9,2.4,3.7,4.7c-0.1,2.4-1.9,4.2-4.4,4.4c-1.3,0.1-2.5,0-3.9,0
			C96,41.1,96,38.1,96,34.8z M97.1,43.2c1,0,1.9,0.1,2.7,0c1.8-0.1,3.2-1.6,3.3-3.3c0.1-1.9-1-3.5-2.8-3.8c-1-0.2-2.1-0.1-3.2-0.2
			C97.1,38.4,97.1,40.7,97.1,43.2z"/>
		<path class="st0" d="M104.1,10.4c0.9,1.2,1.8,2.4,2.8,3.7c-0.5,0-0.8,0-1.3,0c-0.8-1.1-1.7-2.3-2.6-3.5c-0.9,0-1.8,0-2.7,0
			c0,1.2,0,2.3,0,3.5c-0.4,0-0.7,0-1,0c0-3.1,0-6.1,0-9.2c1.6,0,3.2-0.1,4.8,0c1.6,0.1,2.5,1.2,2.6,2.5c0.1,1.2-0.5,2.1-1.6,2.6
			C104.8,10.2,104.5,10.3,104.1,10.4z M100.3,9.5c1.2,0,2.3,0,3.3,0c0.2,0,0.5-0.1,0.7-0.2c0.8-0.3,1.2-1,1.2-1.8s-0.5-1.3-1.3-1.6
			c-1.3-0.3-2.6-0.1-3.9-0.2C100.3,7.1,100.3,8.3,100.3,9.5z"/>
		<path class="st0" d="M121.1,43.2c1.9,0,3.7,0,5.6,0c0,0.3,0.1,0.6,0.1,0.9c-2.3,0-4.5,0-6.8,0c0-3,0-6.1,0-9.2c2.2,0,4.4,0,6.7,0
			c0,0.3,0,0.5,0,0.9c-1.9,0-3.7,0-5.6,0c0,1.1,0,2.1,0,3.2c1.7,0,3.3,0,5,0c0,0.4,0,0.6,0,1c-1.7,0-3.3,0-5,0
			C121.1,41.1,121.1,42.2,121.1,43.2z"/>
		<path class="st0" d="M70.8,43.2c1.9,0,3.7,0,5.6,0c0,0.3,0.1,0.6,0.1,0.9c-2.3,0-4.5,0-6.8,0c0-3,0-6.1,0-9.2c2.2,0,4.4,0,6.7,0
			c0,0.3,0,0.5,0.1,0.9c-1.9,0-3.8,0-5.7,0c0,1.1,0,2.1,0,3.2c1.7,0,3.3,0,5,0c0,0.4,0,0.6,0,1c-1.7,0-3.3,0-5,0
			C70.8,41.1,70.8,42.1,70.8,43.2z"/>
		<path class="st0" d="M93.8,43.2c0,0.4,0,0.7,0,1c-2.3,0-4.5,0-6.7,0c0-3.1,0-6.1,0-9.2c2.2,0,4.4,0,6.7,0c0,0.2,0.1,0.5,0.1,0.9
			c-1.9,0-3.8,0-5.7,0c0,1.1,0,2.1,0,3.2c1.7,0,3.3,0,5,0c0,0.4,0,0.6,0,1c-1.7,0-3.3,0-5.1,0c0,1.1,0,2.1,0,3.2
			C90,43.2,91.8,43.2,93.8,43.2z"/>
		<path class="st0" d="M125.4,14.1c-0.5,0-0.8,0-1.1,0c-0.4-0.8-0.7-1.6-1.1-2.4c-1.7,0-3.4,0-5.1,0c-0.4,0.8-0.7,1.6-1.1,2.4
			c-0.3,0-0.6,0-1.1,0c1.4-3.1,2.8-6.2,4.2-9.3c0.3,0,0.7,0,1.1,0C122.6,7.9,124,10.9,125.4,14.1z M122.8,10.7
			c-0.7-1.6-1.4-3-2.1-4.6c-0.7,1.7-1.4,3.1-2.1,4.6C120,10.7,121.3,10.7,122.8,10.7z"/>
		<path class="st0" d="M92,4.8c0.4,0,0.6,0,1,0c1.4,3,2.8,6.1,4.2,9.3c-0.4,0-0.7,0-1.1,0.1c-0.4-0.8-0.7-1.6-1.1-2.4
			c-1.7,0-3.3,0-5.1,0c-0.4,0.8-0.7,1.5-1.1,2.4c-0.3,0-0.6,0-1.1,0C89.2,11,90.6,8,92,4.8z M92.5,6c-0.7,1.6-1.4,3.1-2.1,4.6
			c1.5,0,2.8,0,4.2,0C93.9,9.1,93.3,7.7,92.5,6z"/>
		<path class="st0" d="M77.1,14.1c-0.4,0-0.7,0-1.1,0.1c-0.4-0.8-0.8-1.6-1.1-2.4c-1.7,0-3.3,0-5.1,0c-0.4,0.8-0.8,1.6-1.1,2.4
			c-0.3,0-0.7,0-1.1,0c1.4-3.1,2.8-6.2,4.2-9.3c0.4,0,0.7,0,1.1,0C74.3,7.9,75.7,11,77.1,14.1z M70.2,10.7c1.5,0,2.8,0,4.2,0
			c-0.7-1.5-1.4-3-2.1-4.6C71.6,7.6,71,9.1,70.2,10.7z"/>
		<path class="st0" d="M85.6,14.1c-1.1-1.4-2.3-2.9-3.5-4.4c-0.7,0.7-1.3,1.4-2,2.2c0,0.6,0,1.4,0,2.2c-0.3,0-0.6,0-1,0
			c0-1.5,0-3,0-4.5s0-3,0-4.7c0.3,0,0.6,0,1-0.1c0,1.8,0,3.5,0,5.3c0.1,0,0.1,0.1,0.2,0.1c1.7-1.8,3.5-3.6,5.2-5.4
			c0.4,0,0.8,0,1.4,0c-1.4,1.4-2.6,2.7-4,4.1c1.4,1.7,2.7,3.4,4.1,5.1C86.4,14.1,86,14.1,85.6,14.1z"/>
		<path class="st0" d="M135.1,36c-0.2,0.2-0.4,0.4-0.5,0.6c-0.8-0.3-1.5-0.7-2.3-0.8c-0.6-0.1-1.2,0-1.8,0.3c-1,0.5-1,1.8,0,2.3
			c0.5,0.3,1.1,0.4,1.7,0.6c0.6,0.2,1.1,0.3,1.7,0.5c1,0.4,1.5,1.1,1.5,2.2c0,1.1-0.6,1.9-1.6,2.3c-1.6,0.7-3.7,0.2-5.3-1.2
			c0.2-0.2,0.4-0.5,0.6-0.8c1,0.8,2,1.4,3.2,1.3c0.4,0,0.9-0.1,1.3-0.3c0.5-0.2,0.8-0.7,0.8-1.3s-0.3-1-0.8-1.2
			c-0.6-0.2-1.2-0.4-1.7-0.6c-0.5-0.2-1.1-0.3-1.6-0.5c-0.9-0.4-1.4-1.1-1.5-2.1c0-1,0.5-1.8,1.4-2.3
			C131.6,34.4,134.1,34.8,135.1,36z"/>
		<path class="st0" d="M65.6,6.5c-0.9-0.3-1.6-0.7-2.3-0.8c-0.5-0.1-1.2,0.1-1.7,0.2c-0.5,0.2-0.8,0.6-0.8,1.2s0.3,1,0.8,1.2
			s1,0.4,1.5,0.5C63.7,9,64.4,9.1,65,9.4c0.9,0.4,1.5,1.1,1.5,2.1c0,1.1-0.5,1.9-1.5,2.3c-1.4,0.6-2.8,0.5-4.1-0.1
			c-0.5-0.2-0.9-0.6-1.5-0.9c0.2-0.3,0.4-0.5,0.6-0.7c0.9,0.4,1.6,0.8,2.5,1c0.6,0.1,1.3,0,2-0.1c0.6-0.1,0.9-0.6,1-1.3
			c0-0.7-0.3-1.1-0.9-1.3s-1.2-0.4-1.8-0.5c-0.5-0.1-0.9-0.3-1.4-0.4c-1-0.4-1.5-1.1-1.5-2.1c0-1.1,0.5-1.9,1.5-2.3
			c1.4-0.6,2.8-0.4,4.1,0.3c0.2,0.1,0.4,0.3,0.7,0.5C65.9,6.1,65.8,6.3,65.6,6.5z"/>
		<path class="st0" d="M138.8,19.9c0,3.1,0,6.2,0,9.2c-0.7,0-1.3,0-1.9,0c0-3.1,0-6.1,0-9.2C137.5,19.9,138.1,19.9,138.8,19.9z"/>
		<path class="st0" d="M115.2,4.9c0.4,0,0.7,0,1.2,0c-0.2,0.3-0.4,0.6-0.5,0.9c-0.9,1.4-1.9,2.7-2.8,4c-0.3,0.4-0.5,0.9-0.5,1.4
			c0,0.9,0,1.9,0,2.9c-0.4,0-0.7,0.1-1.1,0.1c0-1,0-1.9,0-2.8c0-0.6-0.1-1.1-0.5-1.6c-1.1-1.5-2.1-3.1-3.2-4.6c0,0,0-0.1-0.1-0.2
			c0.4,0,0.7,0,1.2,0c1,1.4,2,2.9,3.1,4.6C113.2,7.9,114.2,6.4,115.2,4.9z"/>
		<path class="st0" d="M109.5,34.9c0.5,0,0.8,0,1.2,0c1,1.5,2,3,3.1,4.6c1.1-1.6,2.1-3.1,3.2-4.6c0.4,0,0.7,0,1.2,0
			c-0.6,0.8-1.1,1.6-1.6,2.3c-0.1,0.2-0.2,0.3-0.3,0.5c-0.6,0.9-1.5,1.7-1.8,2.7s-0.1,2.2-0.2,3.2c0,0.2,0,0.3-0.1,0.5
			c-0.3,0-0.6,0-1,0c0-0.9,0-1.8,0-2.7c0-0.6-0.1-1.1-0.5-1.6c-1-1.3-1.9-2.7-2.8-4.1C109.9,35.5,109.7,35.3,109.5,34.9z"/>
		<path class="st0" d="M85,43.2c0,0.4,0,0.7,0,1c-2.1,0-4.1,0-6.3,0c0-3,0-6.1,0-9.2c0.3,0,0.6,0,1,0c0,2.8,0,5.5,0,8.3
			C81.5,43.2,83.2,43.2,85,43.2z"/>
		<path class="st0" d="M137.7,34.9c0.3,0,0.6,0,0.9,0c0,3.1,0,6.1,0,9.3c-0.3,0-0.6,0-0.9,0.1C137.7,41.1,137.7,38.1,137.7,34.9z"/>
		<path class="st0" d="M106.7,34.9c0.3,0,0.6,0,0.9,0c0,3.1,0,6.1,0,9.3c-0.3,0-0.6,0-0.9,0.1C106.7,41.1,106.7,38.1,106.7,34.9z"/>
		<path class="st0" d="M75.8,17.5c0,0.5,0,1,0,1.6c-0.6,0-1.2,0-1.9,0c0-0.5,0-1,0-1.6C74.6,17.5,75.2,17.5,75.8,17.5z"/>
		<path class="st0" d="M71,17.5c0.6,0,1.2,0,1.9,0c0,0.5,0,1.1,0,1.6c-0.6,0-1.2,0-1.9,0C71,18.6,71,18.1,71,17.5z"/>
		<path class="st0" d="M136.9,19.1c0-0.5,0-1,0-1.6c0.6,0,1.3,0,1.9,0c0,0.5,0,1,0,1.6C138.2,19.1,137.5,19.1,136.9,19.1z"/>
		<path class="st0" d="M93.7,19.1c0-0.6,0-1.1,0-1.6c0.6,0,1.2,0,1.9,0c0,0.5,0,1,0,1.6C94.9,19.1,94.3,19.1,93.7,19.1z"/>
		<path class="st0" d="M92.6,17.5c0,0.6,0,1,0,1.6c-0.6,0-1.2,0-1.9,0c0-0.5,0-1,0-1.6C91.4,17.5,92,17.5,92.6,17.5z"/>
		<path class="st0" d="M107.7,34.1c-0.4,0-0.8,0-1.2,0c0-0.4,0-0.7,0-1.1c0.4,0,0.8,0,1.2,0C107.7,33.3,107.7,33.7,107.7,34.1z"/>
		<path class="st0" d="M138.8,34.1c-0.4,0-0.8,0-1.2,0c0-0.4,0-0.7,0-1.1c0.4,0,0.8,0,1.2,0C138.8,33.3,138.8,33.6,138.8,34.1z"/>
		<path class="st0" d="M36.9,25.2c-0.2-0.7-0.4-1.5-0.6-2.3c-0.4,0.2-0.7,0.3-1.1,0.5c-0.3-0.5-0.6-1.1-0.9-1.6
			c0.2-0.5,0.4-1,0.6-1.5c-0.5-0.5-1-1.1-1.6-1.7c-0.3,0.5-0.5,1-0.8,1.5c-0.5-0.2-1-0.4-1.5-0.7c0-0.6-0.1-1.2-0.1-2
			c-0.7-0.1-1.4-0.1-2.2-0.1c0,0.7,0,1.4,0,2.1c-0.6,0.3-1.1,0.5-1.8,0.8c-0.3-0.6-0.7-1.1-1.1-1.7c-0.7,0.6-1.4,1.3-2.1,1.9
			c0.4,0.7,0.7,1.3,1.1,1.9c-0.4,0.7-0.7,1.4-1.1,2.1c-0.6-0.2-1.1-0.4-1.7-0.6c-0.2,1.2-0.7,2.3-0.7,3.6c-0.3,0-0.6,0-1,0
			c-0.1-0.7-0.3-1.5-0.4-2.3c0.6-0.3,1.1-0.6,1.7-1c-0.5-1.1-0.9-2.2-1.4-3.3c-0.7,0.3-1.2,0.5-1.9,0.8c-0.6-0.8-1.2-1.5-1.9-2.3
			c0.3-0.6,0.6-1.3,1-2.1c-1.1-0.8-2.1-1.7-3.3-2.6c-0.4,0.8-0.8,1.4-1.2,2.1c-0.9-0.3-1.9-0.7-3-1.1c-0.1-0.9-0.3-1.9-0.4-2.8
			C14.9,5.6,25.8,2.5,35,7.6c4.4,2.5,7.5,6.1,9.1,10.9c0.7,1.9,1.1,3.8,0.9,5.9c-0.1,0-0.2,0.1-0.3,0.1c-0.2-0.4-0.3-0.8-0.5-1.1
			c0.1-0.4,0.3-0.8,0.4-1.2c-0.3-0.4-0.5-0.7-0.9-1.2c-0.2,0.4-0.3,0.7-0.5,1.1c-0.3-0.1-0.6-0.3-0.9-0.4c0-0.5,0-0.9,0-1.5
			c-0.4,0-0.8,0-1.3-0.1c-0.1,0.5-0.1,1-0.2,1.6c-0.3,0.2-0.6,0.4-1,0.6c-0.2-0.4-0.4-0.7-0.6-1.2c-0.4,0.5-0.8,1-1.2,1.4
			c0.2,0.4,0.3,0.9,0.5,1.3c-0.2,0.5-0.4,1-0.7,1.5C37.6,25.2,37.3,25.2,36.9,25.2L36.9,25.2z"/>
		<path class="st0" d="M44.1,30.8c-1,6.7-11.1,14.1-18.5,13.5c0.1-0.3,0.2-0.7,0.4-1c0.8-1.3,1.5-2.7,2.4-3.9
			c3.4-4.2,7.8-7,13.1-8.3c0.6-0.1,1.3-0.2,1.9-0.3C43.6,30.8,43.8,30.8,44.1,30.8z"/>
		<path class="st0" d="M27.7,28.9c-6.1,2.1-11.8,5-16.9,9c-1.8-1.3-4.2-5.7-4.6-8.1C13.4,29.5,20.6,29.2,27.7,28.9z"/>
		<path class="st0" d="M18.6,27.3c-4.4,0-8.6,0-12.9,0c-0.6-2.3-0.2-6.7,1-9.4C11.9,17.1,18.1,21.1,18.6,27.3z M6.8,19
			c0.2,2.7,0.4,5.2,0.7,7.8h0.1C7.8,24.2,8,21.7,8.1,19C7.7,19,7.3,19,6.8,19z M9,19.1c0.2,2.6,0.4,5.1,0.6,7.6h0.1
			c0.2-2.5,0.3-4.9,0.5-7.4C9.7,19.2,9.4,19.2,9,19.1z M11.7,26.8h0.1c0.2-2.3,0.3-4.5,0.5-6.8c-0.4-0.2-0.7-0.3-1.2-0.5
			C11.3,22.1,11.5,24.5,11.7,26.8z M13.3,20.7c0.2,2.2,0.4,4.2,0.5,6.2h0.1c0.1-1.8,0.2-3.6,0.3-5.4C14,21.2,13.7,21,13.3,20.7z
			 M15.6,22.9c0.1,1.4,0.2,2.7,0.4,3.9C16.2,23.4,16.5,24,15.6,22.9z"/>
		<path class="st0" d="M23.8,44.3c-2.3-0.2-4.5-0.7-6.7-1.7c0.4-0.5,0.8-0.9,1.2-1.3c5-5.3,10.9-9.2,18-11.1
			c1.6-0.4,3.2-0.7,4.9-0.7C33.2,31.8,27.1,36.4,23.8,44.3z"/>
		<path class="st0" d="M33,29.5c-0.6,0.3-1.2,0.5-1.7,0.8c-5.8,2.5-10.8,6.2-15,11c-0.2,0.2-0.4,0.4-0.7,0.8
			c-1.3-0.9-2.5-1.8-3.9-2.8c0.5-0.4,0.9-0.7,1.2-1c5.8-4.2,12.1-7.1,19.1-8.7C32.4,29.5,32.7,29.5,33,29.5L33,29.5z"/>
		<path class="st0" d="M35,27.3c-0.4,0-0.7,0-1.1,0c0-1,0.3-2-0.4-2.9c0.1,1,0.1,1.9,0.2,2.9c-0.5,0-1,0-1.6,0
			c0.1-1.5,0.2-3,0.3-4.6c-0.2-0.2-0.5-0.4-1-0.7c0.2,1.9,0.3,3.5,0.4,5.3c-0.5,0-1,0-1.6,0c0.1-1.8,0.2-3.6,0.3-5.4
			c-0.4,0-0.7,0-1,0c0.2,1.8,0.3,3.6,0.5,5.4c-0.6,0-1.1,0-1.6,0c0.1-1.7,0.2-3.4,0.4-5.2c-0.4,0.2-0.6,0.3-0.9,0.5
			c0.1,1.6,0.2,3.1,0.3,4.7c-0.6,0-1,0-1.6,0c0.1-1.1,0.1-2.2,0.2-3.4c-1.1,1.1-0.4,2.3-0.5,3.4c-0.5,0-1.1,0-1.7,0
			c0.3-2,1-3.8,2.5-5.1c2-1.8,4.7-1.5,6.3,0.6C34.5,24.1,35,25.6,35,27.3z"/>
		<path class="st0" d="M44.5,27.3c-2-0.1-4-0.2-6-0.3c0.3-1.3,0.7-2.5,1.7-3.5c1.3-1.3,2.7-1.1,3.6,0.5C44.4,25,44.6,26.1,44.5,27.3
			z M42,23.1c-1,0.4-0.4,1-0.5,1.5c0,0.5,0.1,1,0.1,1.5c0.1,0,0.1,0,0.2,0C41.9,25.1,42,24.2,42,23.1z M42.5,23.3
			c0.1,1.2,0.2,2.2,0.3,3.3C43.1,23.8,43.1,23.8,42.5,23.3z M41,23.4c-0.6,0.6-0.6,1.5-0.2,3.2C40.8,25.5,40.9,24.6,41,23.4z
			 M39.8,26.6c0-0.5,0-1.1,0-1.6C39.3,25.5,39.7,26.1,39.8,26.6z M43.7,26.6L43.7,26.6c0.1-0.5,0.1-0.9,0.1-1.4h-0.1
			C43.7,25.7,43.7,26.1,43.7,26.6z"/>
		<path class="st0" d="M36.9,25.2c0,0.8,0.1,1.7-0.9,2.3c0-0.6-0.1-1.1-0.1-1.6C36.2,25.7,36.6,25.4,36.9,25.2L36.9,25.2z"/>
		<path class="st0" d="M33,29.5c0.1-0.1,0.2-0.1,0.3-0.2v0.1C33.2,29.4,33.1,29.4,33,29.5L33,29.5z"/>
	</g>
</g>
</svg>
